<?xml version="1.0" encoding="utf-8"?>
<!-- Generator: Adobe Illustrator 15.0.0, SVG Export Plug-In . SVG Version: 6.00 Build 0)  -->
<!DOCTYPE svg PUBLIC "-//W3C//DTD SVG 1.1//EN" "http://www.w3.org/Graphics/SVG/1.1/DTD/svg11.dtd">
<svg version="1.1" id="Capa_1" xmlns="http://www.w3.org/2000/svg" xmlns:xlink="http://www.w3.org/1999/xlink" x="0px" y="0px"
	 width="512px" height="425.453px" viewBox="0 43.273 512 425.453" enable-background="new 0 43.273 512 425.453"
	 xml:space="preserve">
<g>
	<g>
		<path fill="#FF681E" d="M256.001,43.273C114.614,43.273,0,157.887,0,299.274c0,61.609,21.775,118.136,58.037,162.31
			c5.594-44.795,50.333-82.68,113.069-100.62c22.919,21.354,52.524,34.312,84.894,34.312c31.607,0,60.634-12.305,83.318-32.764
			c63.277,19.509,107.057,59.606,108.496,106.215C487.723,423.578,512,364.278,512,299.274
			C512,157.887,397.387,43.273,256.001,43.273z M256.001,364.959c-16.343,0-31.742-4.489-45.415-12.268
			c-32.951-18.75-55.639-57.119-55.639-101.419c0-62.687,45.331-113.688,101.054-113.688c55.728,0,101.054,51.001,101.054,113.688
			c0,44.979-23.397,83.823-57.169,102.247C286.582,360.774,271.736,364.959,256.001,364.959z"/>
	</g>
</g>
</svg>
